<svg width="55" height="397" viewBox="0 0 55 397" fill="none" xmlns="http://www.w3.org/2000/svg">
<path d="M30.2241 370.183C29.9248 372.37 29.7177 374.557 29.7867 376.79C29.8788 378.079 30.0629 380.312 30.3162 382.337C30.7766 385.767 33.1476 391.729 35.0352 394.423C35.3344 394.837 35.5186 395.274 35.7488 395.712C35.8869 395.942 36.2322 396.218 36.2092 396.633C35.4726 396.679 34.5288 396.126 33.8612 396.034C30.063 395.39 27.5538 393.801 25.8964 392.213C24.5613 390.924 23.6175 389.75 22.3974 389.335C21.891 389.358 21.5457 389.381 21.4767 389.888C21.4306 390.21 21.1083 390.233 20.9012 390.026C19.2207 388.461 16.8037 386.251 15.8829 384.225C15.0772 382.429 15.0542 380.726 15.3074 379.046C15.6066 377.089 16.5044 375.04 17.172 372.991C18.0697 370.321 18.9445 368.134 19.589 365.763C20.3026 363.047 21.2464 360.308 21.7529 357.775C20.2336 358.029 19.0596 358.328 18.0467 358.65C16.8267 359.042 15.7678 359.479 14.1794 359.893C13.4428 360.077 12.6601 359.985 11.8084 360.239C10.3582 360.676 9.46039 361.182 9 361.09C9.06906 360.515 10.0589 359.87 10.3121 358.834C10.4733 358.167 10.4963 357.453 10.5193 356.717C10.5193 356.233 10.9797 355.681 11.0027 355.22C11.0027 355.151 10.9336 354.967 10.7955 354.898C10.4963 354.714 9.96684 354.668 9.78268 354.553C9.96684 354.184 10.2661 353.816 10.2661 353.425C10.2891 352.734 10.5193 352.044 10.8186 351.583C11.8084 350.018 13.2126 349.143 14.9391 348.66C16.9648 348.061 19.8883 347.831 23.042 347.739C23.111 346.68 23.1571 345.552 23.2491 344.286C23.3182 343.342 22.7427 342.905 22.2363 342.606C21.937 342.444 20.4868 343.043 20.2796 342.767C20.2796 342.421 21.3155 341.846 21.6147 341.293C21.6838 341.155 21.7529 341.017 21.891 340.879C23.1571 339.659 26.5179 338.554 27.3697 338.968C27.9912 339.268 28.5437 339.544 29.2112 339.935C30.6615 340.787 32.1808 340.925 33.5159 341.639C34.4827 342.168 35.4035 343.089 35.7718 344.217C36.0711 345.161 36.0711 346.312 35.8179 347.624C37.4753 347.601 39.0867 347.555 40.629 347.486C42.5856 347.417 44.8646 347.14 46.7292 347.209C47.0975 347.233 47.4658 347.256 47.8111 347.325C48.5938 347.417 49.5145 347.578 50.113 348.015C50.2512 348.13 52.1158 348.337 52.0927 348.499C52.0467 348.775 50.9878 348.982 50.8727 349.327C50.8727 349.534 51.7014 349.834 52.2999 349.857C53.3588 349.926 54.763 350.041 54.9472 350.248C53.8883 351.1 46.591 351.79 43.5985 352.78C41.849 353.356 42.6087 353.678 41.4347 354.138C39.9614 354.714 36.6696 355.427 35.2424 355.681C34.6208 355.796 33.9993 355.911 33.3778 356.026C32.9864 357.568 32.5951 359.065 32.3189 360.1C31.4441 363.415 30.6615 366.753 30.2241 370.183ZM22.6506 362.264C22.9729 361.712 24.5613 357.822 24.0088 357.614C23.7326 357.499 23.4103 357.453 23.3182 357.868C23.2491 358.282 22.9269 359.824 22.7657 361.067C22.6737 361.689 22.5816 362.172 22.6276 362.287L22.6506 362.264Z" fill="white"/>
<path d="M13.9133 293.432C14.2126 292.097 14.4888 290.9 14.719 289.933C14.9953 288.805 15.2945 287.516 15.3405 286.365C15.3636 285.329 15.0183 285.145 14.0284 285.49C13.476 285.674 13.522 284.915 12.8774 285.03C12.0487 285.145 10.8287 285.444 10 285.49C10.4144 284.477 11.4042 283.511 12.2099 282.129C12.5552 281.531 12.5092 280.725 11.5423 281.163C11.2661 281.278 10.9899 281.485 10.6446 281.416C10.4604 281.024 10.8287 280.748 11.0128 280.564C12.8314 278.907 14.65 277.986 16.3534 276.19C17.1361 275.385 19.2769 274.487 20.4739 275.062C21.5789 275.569 21.8091 275.385 23.0061 275.73C23.6046 275.914 24.134 276.444 24.2491 276.996C24.4333 277.894 24.5944 278.653 25.5843 278.607C26.0217 278.561 26.459 278.63 26.7813 278.976C27.3798 279.597 27.2647 280.725 28.1164 280.909C29.1753 281.093 29.2214 284.615 28.83 285.582C28.6689 285.974 28.2546 286.296 28.0934 286.71C26.6892 290.37 25.5382 294.1 24.4793 297.852C23.5816 301.075 21.9011 306.714 21.4407 309.016C21.1185 310.697 20.9804 311.456 20.7962 313.183C20.7271 315.209 21.1645 316.29 22.891 316.475C22.96 316.498 23.0521 316.521 23.2133 316.59C22.96 317.119 22.7989 317.119 22.4536 317.487C22.0162 317.948 22.0393 318.132 22.6608 318.293C22.9601 318.385 23.8348 318.224 24.2491 318.339C23.6506 319.122 22.2464 319.72 21.5328 320.181C20.7962 320.687 20.0135 321.148 19.2999 321.746C18.7935 322.16 18.3101 322.183 17.7116 321.815C16.3074 321.009 14.696 320.595 13.5681 319.329C13.2228 318.938 12.6703 318.984 12.1638 318.984C11.2431 318.961 11.2431 318.938 11.174 317.971C11.128 317.487 11.1049 316.958 10.9668 316.498C10 313.275 10.1611 311.41 10.5294 308.188C11.0819 303.169 12.8314 298.289 13.9133 293.432ZM15.0643 294.721C15.2945 294.537 15.4096 294.376 15.5707 294.007C15.7779 293.409 16.1002 292.787 16.4685 291.544C16.5836 291.13 16.7678 290.647 16.8829 290.255C16.998 289.864 17.1131 289.427 17.2051 289.104C17.3893 288.552 17.7116 288.114 17.8036 287.815C17.9418 287.309 17.7576 286.825 17.9188 286.273C18.0108 285.974 18.264 285.582 18.287 285.306C18.3101 284.915 18.1029 285.076 17.9188 285.053C17.6886 285.007 17.4123 284.915 17.1361 285.559C17.09 285.651 17.067 285.743 17.044 285.836C16.9289 286.549 16.7908 287.585 16.4915 288.667C16.4455 288.828 16.4225 289.035 16.3994 289.196C16.3304 289.427 16.2383 289.588 16.1462 289.864C16.0542 290.232 15.916 290.578 15.8009 290.923C15.5938 291.636 15.4787 292.35 15.3175 292.949C15.2255 293.225 15.1334 293.501 15.0643 293.754C14.9952 293.961 14.7881 294.537 15.0643 294.721ZM18.9777 289.795C19.323 289.772 19.392 289.588 19.4611 289.404C19.8294 288.276 20.3818 286.779 20.7502 285.674C20.8422 285.398 20.6351 285.582 20.2207 285.421C19.8754 285.306 19.8754 285.467 19.7143 285.72C19.461 286.181 19.4841 286.802 19.346 287.286C19.1618 288.137 18.9316 288.897 18.9777 289.795Z" fill="white"/>
<path d="M12.1313 262.624C11.74 262.763 11.4868 263.062 11.1415 263.177C10.543 263.384 9.87541 263.292 9.53012 263.453C8.83953 263.752 8.95463 264.144 8.28706 264.098C7.3893 264.052 5.91604 263.361 5.13338 262.763C1.93365 261.796 0.368314 258.734 0 257.583C0.552471 257.698 1.56534 258.412 1.86459 258.665C2.71632 259.218 4.07447 258.895 3.93636 258.504C4.12051 258.297 4.25864 258.044 4.37373 257.698C4.55789 257.192 4.85715 255.58 4.97224 255.005C5.63981 251.92 7.80365 242.805 8.03384 235.83C8.1029 234.264 7.34326 232.147 7.1591 230.88C6.97495 229.384 7.04401 228.671 6.88287 227.98C6.58362 226.829 4.5809 226.599 3.22275 225.563C5.68585 225.195 6.37644 224.826 7.11307 223.238C7.5044 222.616 7.98781 221.88 8.81651 221.396C10.1747 220.591 11.8781 220.13 12.914 219.762C14.134 219.348 15.3081 219.14 16.1828 218.956C18.0474 218.542 20.4875 219.877 21.6154 221.35C22.26 222.156 22.352 222.11 23.3419 222.455C24.0325 222.708 24.608 222.801 25.2525 223.008C26.1042 223.284 26.4956 223.675 26.8179 224.481C27.0711 225.264 27.1171 226 27.1631 226.76C27.3473 229.96 28.3141 234.564 29.1889 238.086C29.327 238.638 29.6262 239.858 30.0866 240.48C30.2248 240.687 30.4089 240.963 30.6161 241.078C31.0995 241.377 31.721 240.802 32.1124 240.226C33.7007 238.063 34.7596 236.589 35.7264 234.84C35.9566 234.425 36.7393 232.952 36.7393 232.308C36.7163 231.847 36.325 231.732 36.2329 231.732C36.1638 231.272 36.6933 230.489 36.8544 230.121C37.0156 229.729 37.9594 227.451 38.673 226.115C39.5017 224.55 40.1462 223.952 40.5145 223.882C41.1821 223.929 41.7806 223.836 42.4021 223.537C43.2769 223.123 44.1977 222.847 45.1875 222.685C47.1672 222.386 48.5944 223.146 49.6994 224.734C50.2288 225.517 51.7941 227.22 51.7481 228.325C51.7251 229.016 51.4719 229.43 51.0575 229.891C50.5281 230.282 50.3439 230.834 50.1367 231.387C48.7325 234.84 48.3182 238.546 47.9959 242.206C47.6046 246.488 47.0981 250.654 47.5355 254.982C47.6736 256.432 48.088 259.356 48.7325 260.76C48.9627 261.243 49.3541 261.197 49.6763 261.151C49.6993 261.589 49.262 262.118 48.9397 262.325C47.8118 263.016 44.6811 262.049 43.5301 261.45C41.7806 261.151 40.3994 260.645 39.3405 259.149C38.6269 258.205 38.0054 257.652 37.3608 257.905C36.6933 256.801 36.5321 253.969 36.5321 252.611C36.5321 248.997 37.545 247.201 38.3967 243.725C39.0413 241.055 39.4556 238.96 39.4786 236.244C39.4786 235.968 39.4786 235.715 39.3635 235.646C39.2024 235.553 38.9262 235.669 38.5809 235.761C37.9824 235.922 37.499 237.073 36.9005 237.901C34.7596 240.894 32.5497 244.025 32.1124 244.462L31.8131 244.646C31.629 244.922 31.4448 245.176 31.0304 245.176C30.3629 245.199 29.6263 245.222 29.0277 245.429C28.7285 245.613 28.4522 245.889 28.0609 245.843C27.8077 245.82 27.3013 245.475 26.9099 245.061C25.6438 243.679 24.7 239.513 24.3087 238.73C23.8023 237.602 22.8355 233.321 22.0758 232.883C21.6845 232.653 21.4543 232.998 21.4082 233.367C21.3162 233.919 21.3392 235.07 21.3392 235.669C21.2241 241.308 21.3852 247.777 20.3954 253.279C20.1882 254.522 20.1191 255.604 19.6588 256.778C18.738 259.079 17.1957 260.507 15.4922 261.381C14.4333 261.934 13.3974 262.141 12.1313 262.624ZM42.9316 233.159C42.5403 233.735 42.3331 237.027 42.3331 237.832C42.3331 239.168 43.6912 233.758 43.7373 233.251C43.7833 232.607 43.1158 232.929 42.9316 233.159ZM41.3202 234.287C41.2281 234.31 41.1821 234.333 41.1361 234.448C40.9059 234.84 40.9289 236.912 41.044 237.441C41.09 237.74 41.4353 235.622 41.4814 235.323C41.5274 235.093 41.7576 234.195 41.3202 234.287Z" fill="white"/>
<path d="M13.1313 208.624C12.74 208.763 12.4868 209.062 12.1415 209.177C11.543 209.384 10.8754 209.292 10.5301 209.453C9.83953 209.752 9.95463 210.144 9.28706 210.098C8.3893 210.052 6.91604 209.361 6.13338 208.763C2.93365 207.796 1.36831 204.734 1 203.583C1.55247 203.698 2.56534 204.412 2.86459 204.665C3.71632 205.218 5.07447 204.895 4.93636 204.504C5.12051 204.297 5.25864 204.044 5.37373 203.698C5.55789 203.192 5.85715 201.58 5.97224 201.005C6.63981 197.92 8.80365 188.805 9.03384 181.83C9.1029 180.264 8.34326 178.147 8.1591 176.88C7.97495 175.384 8.04401 174.671 7.88287 173.98C7.58362 172.829 5.5809 172.599 4.22275 171.563C6.68585 171.195 7.37644 170.826 8.11307 169.238C8.5044 168.616 8.98781 167.88 9.81651 167.396C11.1747 166.591 12.8781 166.13 13.914 165.762C15.134 165.348 16.3081 165.14 17.1828 164.956C19.0474 164.542 21.4875 165.877 22.6154 167.35C23.26 168.156 23.352 168.11 24.3419 168.455C25.0325 168.708 25.608 168.801 26.2525 169.008C27.1042 169.284 27.4956 169.675 27.8179 170.481C28.0711 171.264 28.1171 172 28.1631 172.76C28.3473 175.96 29.3141 180.564 30.1889 184.086C30.327 184.638 30.6262 185.858 31.0866 186.48C31.2248 186.687 31.4089 186.963 31.6161 187.078C32.0995 187.377 32.721 186.802 33.1124 186.226C34.7007 184.063 35.7596 182.589 36.7264 180.84C36.9566 180.425 37.7393 178.952 37.7393 178.308C37.7163 177.847 37.325 177.732 37.2329 177.732C37.1638 177.272 37.6933 176.489 37.8544 176.121C38.0156 175.729 38.9594 173.451 39.673 172.115C40.5017 170.55 41.1462 169.952 41.5145 169.882C42.1821 169.929 42.7806 169.836 43.4021 169.537C44.2769 169.123 45.1977 168.847 46.1875 168.685C48.1672 168.386 49.5944 169.146 50.6994 170.734C51.2288 171.517 52.7941 173.22 52.7481 174.325C52.7251 175.016 52.4719 175.43 52.0575 175.891C51.5281 176.282 51.3439 176.834 51.1367 177.387C49.7325 180.84 49.3182 184.546 48.9959 188.206C48.6046 192.488 48.0981 196.654 48.5355 200.982C48.6736 202.432 49.088 205.356 49.7325 206.76C49.9627 207.243 50.3541 207.197 50.6763 207.151C50.6993 207.589 50.262 208.118 49.9397 208.325C48.8118 209.016 45.6811 208.049 44.5301 207.45C42.7806 207.151 41.3994 206.645 40.3405 205.149C39.6269 204.205 39.0054 203.652 38.3608 203.905C37.6933 202.801 37.5321 199.969 37.5321 198.611C37.5321 194.997 38.545 193.201 39.3967 189.725C40.0413 187.055 40.4556 184.96 40.4786 182.244C40.4786 181.968 40.4786 181.715 40.3635 181.646C40.2024 181.553 39.9262 181.669 39.5809 181.761C38.9824 181.922 38.499 183.073 37.9005 183.901C35.7596 186.894 33.5497 190.025 33.1124 190.462L32.8131 190.646C32.629 190.922 32.4448 191.176 32.0304 191.176C31.3629 191.199 30.6263 191.222 30.0277 191.429C29.7285 191.613 29.4522 191.889 29.0609 191.843C28.8077 191.82 28.3013 191.475 27.9099 191.061C26.6438 189.679 25.7 185.513 25.3087 184.73C24.8023 183.602 23.8355 179.321 23.0758 178.883C22.6845 178.653 22.4543 178.998 22.4082 179.367C22.3162 179.919 22.3392 181.07 22.3392 181.669C22.2241 187.308 22.3852 193.777 21.3954 199.279C21.1882 200.522 21.1191 201.604 20.6588 202.778C19.738 205.079 18.1957 206.507 16.4922 207.381C15.4333 207.934 14.3974 208.141 13.1313 208.624ZM43.9316 179.159C43.5403 179.735 43.3331 183.027 43.3331 183.832C43.3331 185.168 44.6912 179.758 44.7373 179.251C44.7833 178.607 44.1158 178.929 43.9316 179.159ZM42.3202 180.287C42.2281 180.31 42.1821 180.333 42.1361 180.448C41.9059 180.84 41.9289 182.912 42.044 183.441C42.09 183.74 42.4353 181.622 42.4814 181.323C42.5274 181.093 42.7576 180.195 42.3202 180.287Z" fill="white"/>
<path d="M29.9356 156.272C28.6696 156.433 27.7948 156.295 26.5057 156.364C25.654 156.41 24.8023 156.894 23.9505 157.032C22.8686 157.124 23.2369 157.561 23.9045 157.492C23.9736 157.515 26.1144 157.262 27.4725 157.377C27.7718 157.4 27.8869 157.446 27.9329 157.538C27.7258 157.699 27.4035 157.791 25.8382 158.045C24.457 158.252 23.0528 158.551 22.8686 158.643C21.9939 159.011 21.0961 159.126 20.1983 159.196C19.0934 159.011 17.1367 157.86 15.6174 156.778C14.7197 156.134 13.8679 155.443 12.8781 154.661C12.0954 154.039 11.1286 153.418 10.5992 152.382C9.24101 149.827 7.65266 148.814 8.06701 145.798C8.22815 144.67 8.87269 141.309 9.01081 140.181C9.28705 137.971 10.1848 135.785 11.3128 133.621C13.2234 129.915 15.2952 126.623 17.0216 123.262C17.1367 123.055 17.3439 122.732 17.1598 122.571C16.7684 122.272 17.0216 121.996 17.1828 121.674C17.413 121.213 17.6892 120.753 17.8043 120.246C18.0575 119.28 17.5971 118.589 16.6533 119.026C16.4001 119.141 15.2031 119.671 14.8348 119.233C15.5023 118.29 16.6533 117.392 17.5971 116.402C18.3338 115.642 19.0474 114.883 19.7149 114.284C20.2214 113.847 20.7738 113.732 21.2803 114.1C21.8558 114.491 22.5003 114.837 23.0758 115.481C23.6743 116.149 24.1117 116.241 24.8713 116.172C26.0223 116.08 26.4367 116.563 26.874 117.783C28.2322 119.441 28.8767 120.108 28.9688 121.144C29.0839 122.779 28.4394 124.735 28.0941 126.37C27.3574 128.533 26.1834 130.559 24.9634 132.562C22.9147 136.176 21.2342 139.652 20.6357 143.473C20.4285 144.647 19.6229 147.064 20.0372 148.031C20.1753 148.376 20.6357 148.56 20.8889 148.791C21.1652 149.044 21.4874 149.159 21.8558 149.32C22.7075 149.688 23.6973 149.642 24.7102 149.804C27.1963 150.218 29.199 149.711 31.3398 148.837C33.826 147.156 34.8158 145.867 35.3222 143.289C36.0128 139.79 36.0128 136.936 35.5064 133.368C35.2992 131.572 35.046 129.799 34.8388 128.027C34.6316 126.254 34.4705 124.505 34.0562 122.802C33.9871 122.571 33.5267 121.466 33.6878 121.029C34.3554 121.213 34.8388 122.111 35.3222 122.433C36.7494 123.331 38.1767 124.482 38.9824 126.139C39.2586 126.508 39.3737 127.014 39.5809 127.451C39.696 127.682 39.765 128.004 40.1103 127.82C40.3865 127.682 40.6167 127.405 40.7549 127.037C40.7779 126.991 40.7779 126.945 40.8009 126.876C41.0081 126.37 40.8009 125.587 41.0771 125.219C41.4685 125.38 41.7447 125.978 41.9749 126.324C42.2511 126.715 42.6194 126.922 42.9647 127.267C43.241 127.544 43.5633 128.211 43.9316 128.395C44.0697 128.464 44.2078 128.257 44.392 128.257C44.5991 128.303 44.6682 128.625 44.8063 128.787C44.8984 128.902 45.0365 128.971 45.1286 129.086C45.9573 130.283 46.1184 132.078 45.9573 134.173C45.8422 136.613 45.3818 139.007 44.484 141.424C43.4482 144.279 42.2281 146.949 40.916 149.481C40.7088 149.85 40.5247 150.264 40.2714 150.586C38.4299 152.957 36.4502 154.96 34.2173 156.387C33.872 156.594 33.0433 157.032 32.2606 157.285C31.547 157.492 30.0507 157.331 29.7515 157.17C29.4522 156.963 30.5802 156.18 29.9356 156.272ZM23.5132 154.822C23.5132 154.822 23.1909 155.328 23.6743 155.397C24.1807 155.466 27.6337 154.822 28.4163 154.43C28.4163 154.43 25.654 154.477 23.5132 154.822Z" fill="white"/>
<path d="M42.2877 89.1015C41.9654 89.7921 41.528 90.5977 40.9526 91.5185C39.5484 93.5212 37.891 94.9945 36.1645 96.4908C34.0006 97.6648 31.8828 98.6776 29.788 99.8286C27.394 101.21 24.9309 102.062 22.4908 102.936C21.57 103.259 20.6953 102.798 19.7745 103.097C19.6134 103.143 19.3602 102.89 19.2451 102.683C18.8077 101.762 18.0941 101.785 17.3114 101.923C16.2525 102.131 15.2396 102.591 14.1807 103.051C13.7434 103.236 13.306 103.466 12.8226 103.397C13.4902 102.729 14.1807 102.131 14.8713 101.509C16.0914 100.404 17.3114 99.3682 18.4854 98.2633C19.6594 97.1583 20.8564 96.0074 22.0535 94.6722C22.8591 93.7975 23.6188 92.8997 24.4245 92.1861C25.1611 91.4495 25.8056 90.5287 26.4042 89.5619C26.9106 88.7101 27.5091 88.1116 28.0155 87.3059C28.4299 86.6154 29.1435 85.3953 29.3507 84.7047C29.6039 83.7839 29.3737 83.4386 28.4069 83.4386C26.5883 83.4386 24.7698 83.4156 22.9512 83.5307C20.6953 83.6688 18.4394 83.7149 16.2295 84.2443C15.2166 84.4745 14.2498 83.9681 13.26 84.1062C13.0067 84.1292 12.8686 83.876 12.8226 83.6458C12.6154 82.679 11.8788 82.1495 11.1191 81.6431C10.6587 81.3439 10.2444 80.9755 9.784 80.6763C9.25455 80.308 8.97831 79.7785 9.00133 79.18C9.02435 77.7988 9.3236 76.3946 10.3825 75.4508C11.1191 74.8063 12.086 73.5632 12.6154 72.7575C12.8686 72.3662 12.9607 72.09 12.8916 71.9519C12.5233 71.9288 12.155 72.3662 11.8558 72.6655C11.5335 72.9647 11.3263 73.241 11.0271 73.2179C10.935 73.0108 11.1191 72.5273 11.2342 72.3202C13.6743 68.1997 15.9533 63.964 19.4522 60.5802C20.6953 59.3831 22.0535 58.3473 23.6188 57.5876C25.6445 56.5978 27.6702 56.7359 29.696 57.4495C30.87 57.8869 31.9979 58.2782 33.218 57.8408C33.264 57.9789 33.3561 58.048 33.3331 58.1171C33.0338 59.3371 33.4021 59.8205 34.6222 59.6824C34.9675 59.6364 35.3358 59.5213 35.6811 59.4292C35.9343 59.3601 36.2335 59.222 36.4637 59.3831C37.3155 59.9356 38.006 59.5443 38.6966 59.0378C39.0419 58.7846 39.3642 58.8077 39.6404 59.1299C40.4461 60.1198 41.5511 60.4651 42.7481 60.6492C44.3364 60.8564 45.0731 61.8923 44.5666 63.7108C44.3134 64.6316 43.9451 65.4833 43.4157 66.289C42.8862 67.0487 40.1699 71.1692 39.5484 73.1259C39.3412 73.7244 39.2031 74.9444 39.0419 75.0135C38.9038 75.1286 38.5355 74.461 38.5355 74.415C38.3283 73.7704 38.1211 73.241 37.7068 73.0568C37.2464 72.8266 36.786 73.5862 36.4868 73.6323C36.2105 73.4942 35.9343 72.9187 35.7731 72.9187C35.0135 72.8726 34.415 72.7575 34.1157 72.2741C33.8625 71.8137 34.1157 68.4529 34.2769 67.5551C34.5301 66.0128 34.9905 64.5165 35.5199 62.79C34.9214 62.5599 34.2308 62.9282 33.8165 63.1353C31.8598 64.1482 29.8571 65.2301 28.1306 66.5883C25.2532 68.8672 22.2606 71.1231 20.0047 74.1157C19.8896 74.2999 19.7055 74.6221 19.7055 74.8523C19.8666 74.9214 20.1428 74.8984 20.373 74.8984C22.3987 74.8523 24.4475 74.8753 26.4732 75.0825C28.3148 75.2667 30.1564 75.5659 31.9519 75.9342C32.9187 76.1414 33.7244 76.7169 34.392 77.3615C35.1056 78.029 35.8422 78.2592 36.74 77.937C37.2464 77.7758 37.4075 77.96 37.4306 78.3973C37.4996 79.5944 38.2593 80.2619 39.2031 80.7914C41.8733 82.3107 43.1624 84.5666 42.7481 87.4441C42.656 87.9044 42.4028 88.8483 42.2877 89.1015ZM29.8571 86.7074C29.9722 86.7765 30.0643 86.8225 30.1564 86.8916C30.7549 86.0629 31.4455 85.3032 31.9289 84.3824C32.044 84.1753 32.09 83.9221 31.8598 83.7839C31.6296 83.6458 31.4224 83.807 31.3304 84.0141C30.8239 84.9119 30.3405 85.8097 29.8571 86.7074ZM32.4123 86.0859C33.31 85.4874 33.7704 84.981 33.9546 84.1983C33.9776 84.0832 33.8855 83.899 33.7935 83.853C33.7244 83.807 33.5172 83.876 33.4482 83.9451C33.0799 84.5206 32.7115 85.1191 32.4123 86.0859Z" fill="white"/>
<path d="M12.7754 5.14311C12.7984 4.68271 13.3279 3.78495 13.8343 3.32456C14.8011 2.44981 17.2412 1.59809 18.0929 0.585222C18.139 0.516164 18.208 0.447103 18.3001 0.401064C19.1058 -0.174426 21.6149 -0.105367 22.4436 0.447104C22.927 0.792398 23.1572 1.20675 23.3184 1.7362C23.5486 2.19659 24.5844 2.95624 25.5973 3.64683C26.6562 4.38346 28.1525 4.61366 28.9582 4.63667C33.2859 4.40648 41.4348 1.59809 44.4274 1.80526C45.3021 1.8513 45.7625 2.40377 45.9467 3.30154C46.1078 3.96911 46.9595 5.6035 47.3509 6.17899C48.3867 7.65224 48.2716 8.91832 46.8214 10.0923C46.0618 10.6908 45.233 11.2893 44.2892 11.6346C43.5526 11.9109 43.0001 12.3713 42.2635 12.3713C41.4578 12.3943 40.445 11.9339 39.6393 11.6807C38.8106 11.4275 37.8668 10.9671 36.969 10.6218C36.6467 10.5067 36.3705 10.3455 36.0482 10.2765C35.7259 10.1844 35.4267 10.2765 35.1044 10.2535C35.0123 9.77005 35.6569 9.70099 35.818 9.44777C36.3475 8.68813 36.3245 8.45793 35.4727 8.22773C34.2987 7.92848 31.4443 8.27377 31.3292 7.90546C31.3292 7.79036 32.273 7.53714 32.296 7.16883C32.296 6.96165 31.6745 7.16883 31.4903 7.16883C31.2371 7.12279 30.0171 7.44507 29.971 7.49111C29.925 7.56016 29.902 8.15868 29.948 8.31981C30.1552 9.49381 29.5337 10.852 29.1423 11.9109C28.4057 13.8675 28.3827 15.0876 27.531 16.9982C27.3928 17.2514 27.1626 17.5967 27.4389 17.8499C27.6921 18.1031 28.0374 17.8499 28.3366 17.7809C29.1193 17.5967 29.902 17.3895 30.7077 17.2284C32.5032 16.8601 34.2297 17.0673 35.7259 18.2182C36.5777 18.8858 37.4294 19.5534 38.3041 20.221C38.9027 20.6813 39.1559 21.3719 39.5702 21.9474C39.7314 22.1776 39.8004 22.5229 39.6393 22.7301C38.9487 23.7199 39.6623 24.1573 40.3068 24.6407C40.3529 24.6637 40.3529 24.7098 40.4219 24.8249C40.0767 24.963 39.7544 24.8709 39.4551 24.7788C35.9561 23.9962 29.9941 23.9962 25.9426 24.5717C25.275 24.7788 25.0218 25.1241 24.8377 25.7687C24.1701 28.3469 22.904 33.2731 22.3055 35.8743C22.1444 36.5879 22.1444 37.3015 22.2825 38.0381C22.4206 38.8899 22.7199 39.028 23.4795 38.7287C23.9399 38.5446 24.3773 38.3144 24.8377 38.0842C24.6075 37.6468 24.1931 37.8079 23.8939 37.6928C23.7327 37.6238 23.5255 37.6008 23.5255 37.3706C23.5255 37.1864 23.6867 37.0483 23.8478 36.9792C27.2547 35.575 30.6616 34.1939 34.4599 34.7003C37.2222 35.0916 39.5702 36.4037 41.665 38.1993C41.8261 38.3374 42.1024 38.4985 41.8722 38.7287C41.3197 39.2582 41.7341 39.6265 41.9873 40.0408C42.7009 41.0537 43.5756 41.9975 44.1051 43.1715C43.7138 43.4247 43.3685 43.2636 43.0232 43.1945C39.6623 42.4809 34.621 41.6752 30.4545 41.9975C28.4978 42.1356 25.6434 42.6651 23.0882 43.6319C21.661 44.1614 20.6481 45.0131 19.313 45.7267C19.0828 45.8418 18.5533 46.0259 18.0239 46.2561C17.5865 46.4403 17.1261 46.6935 16.9189 46.6705C16.7117 46.1641 17.3563 45.8418 17.034 45.4505C15.883 44.0463 11.9467 42.5039 10.4274 41.7443C9.46056 41.2609 9.27641 40.9846 9.43754 39.9718C9.52962 39.4193 9.6217 38.8899 9.87492 38.4065C11.3942 35.1146 13.9494 30.0043 14.686 26.2521C14.8011 25.7687 15.0083 25.6766 14.9853 25.3543C14.9853 25.2162 14.709 25.1241 14.4558 24.8939C14.2717 24.6868 13.9954 24.5717 13.7192 24.5486C13.443 24.5256 13.1667 24.5256 13.0977 24.4335C13.1897 24.2724 13.489 24.1343 13.535 24.0422C13.6041 23.9271 13.8113 23.6279 13.5811 23.5128C13.3048 23.3516 11.6704 23.4207 11.141 23.3516C11.9697 22.7531 13.6501 22.3157 14.4788 21.6942C15.4917 20.8425 16.3434 13.7064 15.9981 9.21758C15.9291 8.45793 15.7219 6.5473 14.9853 5.51142C14.64 5.00499 14.1796 4.68271 13.6501 4.88989C13.489 4.98197 13.0516 5.07405 12.7754 5.14311Z" fill="white"/>
</svg>
